<?xml version="1.0" encoding="utf-8"?>
<!-- Generator: Adobe Illustrator 26.0.0, SVG Export Plug-In . SVG Version: 6.00 Build 0)  -->
<svg version="1.1" id="图层_1" xmlns="http://www.w3.org/2000/svg" xmlns:xlink="http://www.w3.org/1999/xlink" x="0px" y="0px"
	 viewBox="0 0 351 365" style="enable-background:new 0 0 351 365;" xml:space="preserve">
<style type="text/css">
	.st0{fill-rule:evenodd;clip-rule:evenodd;fill:#0075C1;}
</style>
<path class="st0" d="M215.37,262.24L215.37,262.24h-78.61c11.68,6.54,25.02,10.25,39.23,10.25
	C190.23,272.49,203.69,268.78,215.37,262.24 M238.97,242.1L238.97,242.1c-41.93,0-83.88,0-125.94,0c2.95,3.58,6.18,6.93,9.63,10
	h106.82C232.94,249.03,236.14,245.68,238.97,242.1z M97.91,211.97L97.91,211.97h156.32c1.65-6.54,2.55-13.21,2.55-20.26
	c0-44.37-36.29-80.66-80.8-80.66c-44.36,0-80.64,36.29-80.64,80.66C95.35,198.76,96.24,205.43,97.91,211.97z M250.9,221.96
	L250.9,221.96H101.24c1.41,3.47,3.08,6.93,4.87,10.14c46.68,0,93.22,0,139.77,0C247.82,228.89,249.49,225.43,250.9,221.96z
	 M124.58,198.11L124.58,198.11v-31.28h-12.83v-4.61h30.53v4.61h-12.83v31.28H124.58z M151.39,177.73L151.39,177.73h4.1
	c2.31,0,4.11-0.52,5.25-1.41c1.16-0.9,1.67-2.3,1.67-4.23c0-1.93-0.52-3.34-1.67-4.23c-1.01-0.9-2.82-1.29-5.25-1.29h-4.1V177.73z
	 M146.39,198.11L146.39,198.11v-35.9h10.11c3.61,0,6.3,0.77,8.22,2.56c1.93,1.67,2.82,4.09,2.82,7.18c0,2.43-0.5,4.36-1.54,5.77
	c-1.02,1.4-2.69,2.43-4.99,3.2c0.64,0.39,1.15,0.77,1.67,1.29c0.51,0.49,1.15,1.4,2.04,2.68l8.47,13.2h-6.03l-6.02-9.48
	c-1.8-2.82-3.21-4.62-4.37-5.4c-1.02-0.75-2.43-1.14-3.97-1.14h-1.41v16.02H146.39z M173.43,180.04L173.43,180.04
	c0-2.44,0.39-4.75,1.41-7.05c0.9-2.18,2.32-4.23,3.98-5.89c1.79-1.8,3.85-3.21,6.03-4.1c2.3-0.9,4.61-1.41,7.18-1.41
	c2.43,0,4.87,0.52,7.18,1.41c2.17,0.89,4.23,2.3,5.9,4.1c1.92,1.78,3.2,3.72,4.1,6.03c0.9,2.17,1.41,4.61,1.41,7.17
	c0,2.43-0.51,4.87-1.41,7.06c-0.9,2.3-2.31,4.23-3.97,5.88c-1.8,1.8-3.86,3.22-6.16,4.12c-2.18,0.89-4.62,1.41-7.05,1.41
	c-2.57,0-4.88-0.51-7.18-1.41c-2.31-1.03-4.24-2.32-6.03-4.12c-1.78-1.78-3.08-3.71-4.11-6.02
	C173.82,184.91,173.43,182.61,173.43,180.04z M178.69,180.16L178.69,180.16c0,1.8,0.38,3.58,1.03,5.26
	c0.64,1.67,1.54,3.08,2.82,4.36c1.28,1.29,2.7,2.32,4.36,2.95c1.54,0.76,3.33,1.02,5.13,1.02c1.79,0,3.47-0.26,5.12-1.02
	c1.55-0.63,2.95-1.66,4.23-2.95c1.29-1.28,2.19-2.69,2.96-4.36c0.64-1.67,1.02-3.46,1.02-5.26c0-1.8-0.38-3.59-1.02-5.26
	c-0.65-1.53-1.67-3.07-2.96-4.36c-1.28-1.41-2.69-2.44-4.35-3.07c-1.53-0.65-3.21-1.03-5-1.03c-1.8,0-3.47,0.38-5.13,1.03
	c-1.53,0.76-3.08,1.66-4.36,3.07c-1.28,1.16-2.19,2.7-2.82,4.36C179.07,176.58,178.69,178.36,178.69,180.16z M222.68,198.11
	L222.68,198.11v-17.95l-13.46-17.95h5.9l10.24,13.59l10.4-13.59h6.02l-13.97,18.2v17.69H222.68z M34.82,292.5h282.37
	c11.14,0,20.12-9.1,20.12-20.12c0-0.27,0-0.52,0-0.78V111.94c0-0.39,0-0.64,0-0.89c0-11.02-8.98-20.14-20.12-20.14
	c-0.13,0-0.13,0-0.27,0H35.21c-0.13,0-0.26,0-0.39,0c-11.02,0-20.14,9.11-20.14,20.14c0,0.5,0,1.15,0.13,1.67
	c0,48.46,0,111.42,0,159.51v0.14C14.82,283.39,23.8,292.5,34.82,292.5z"/>
</svg>
